# xmcd
#
# Track frame offsets:
#	150
#	20367
#	38516
#	51294
#	63649
#	75446
#	90503
#	108205
#	124083
#	143466
#	156852
#	168310
#	185459
#	204436
#	220241
#	232087
#	246537
#	265211
#	281199
#	294436
#	306290
#	319872
#	331371
#	345170
#
# Disc length: 4819 seconds
#
# Revision: 0
# Processed by: cddbd v1.5.2PL0 Copyright (c) Steve Scherf et al.
# Submitted via: dBpowerAMP V4.0
#
DISCID=5812d118
DTITLE=Various Artist - the Best Country Album ....Ever CD2
DYEAR=2006
DGENRE=Country
TTITLE0=Amazed - Lonestar
TTITLE1=I Hope You Dance - Lee Ann Womack
TTITLE2=Blue - LeAnn Rimes
TTITLE3=Crazy - Patsy Cline
TTITLE4=I Don't Wanna Play House - Tammy Wynette
TTITLE5=I Recall A Gypsy Woman - Don Williams
TTITLE6=Mr Bojangles - Jerry Jeff Walker
TTITLE7=The Gambler - Kenny Rodgers
TTITLE8=It's Hard To Be Humble - Mac Davies
TTITLE9=It's Four In The Morning - Faron Young
TTITLE10=Don't It Make My Brown Eyes Blue - Crystal Gayle
TTITLE11=Garden Party - Rick Nelson
TTITLE12=Margaritaville - Jimmy Buffett
TTITLE13=Sing Me An Old Fashioned Song - Billie Jo Spears
TTITLE14=Whole Lotta Woman - Marvin Rainwater
TTITLE15=I Love A Rainy Night - Eddie Rabbitt
TTITLE16=Walk A Mile In My Shoes - Joe South
TTITLE17=The Night They Drove Old Dixie Down - The Band
TTITLE18=Hey Good Lookin - Hank Williams
TTITLE19=Siteen Tons - Tennessee Ernie Ford
TTITLE20=Big Bad John - Jimmy Dean
TTITLE21=It Wasn't God Who Made Honky Tonk Angels - Kitty Wells
TTITLE22=Funny How Time Slips Away - Willie Nelson
TTITLE23=You Light Up My Life - Debby Boone
EXTD=
EXTT0=
EXTT1=
EXTT2=
EXTT3=
EXTT4=
EXTT5=
EXTT6=
EXTT7=
EXTT8=
EXTT9=
EXTT10=
EXTT11=
EXTT12=
EXTT13=
EXTT14=
EXTT15=
EXTT16=
EXTT17=
EXTT18=
EXTT19=
EXTT20=
EXTT21=
EXTT22=
EXTT23=
PLAYORDER=
